Coordinates
version=1
nRows=10
nColumns=40
inDegrees=yes

Units are S.I. units (second, meters, Newtons, ...)
Angles are in degrees.

endheader
time	pelvis_tilt	pelvis_list	pelvis_rotation	pelvis_tx	pelvis_ty	pelvis_tz	hip_flexion_r	hip_adduction_r	hip_rotation_r	knee_angle_r	knee_angle_r_beta	ankle_angle_r	subtalar_angle_r	mtp_angle_r	hip_flexion_l	hip_adduction_l	hip_rotation_l	knee_angle_l	knee_angle_l_beta	ankle_angle_l	subtalar_angle_l	mtp_angle_l	lumbar_extension	lumbar_bending	lumbar_rotation	arm_flex_r	arm_add_r	arm_rot_r	elbow_flex_r	pro_sup_r	wrist_flex_r	wrist_dev_r	arm_flex_l	arm_add_l	arm_rot_l	elbow_flex_l	pro_sup_l	wrist_flex_l	wrist_dev_l
      4.78750000	     -2.58182441	     -6.96702059	      3.79229206	      1.01587921	      0.93283980	      0.50449725	      7.87741552	      5.59871565	    -19.99641971	     13.04241877	     13.04241877	     10.65924441	      5.04201675	     -2.85342030	     32.74065565	    -13.47134317	      1.29444612	     59.65720242	     59.65720242	      7.74744387	    -17.63247051	      9.40342414	    -10.18827486	      7.23314212	      2.31593435	     25.70676275	    -14.72552882	     -3.58687171	     52.36464139	     45.37424108	      0.00000000	      0.00000000	      0.00907432	     -7.47975245	      0.31117025	     33.58999269	     46.16662089	      0.00000000	      0.00000000
      4.79900000	     -2.70804902	     -6.95521315	      3.79889722	      1.01477052	      0.93284699	      0.50466104	      7.01367028	      5.80017169	    -19.87641862	     12.19715708	     12.19715708	     10.82318092	      5.33250489	     -3.01052579	     33.58320429	    -13.19907409	      1.08772950	     56.69450506	     56.69450506	      7.80425318	    -17.60406009	     10.01494109	    -10.22993208	      7.22990154	      2.40977043	     28.01969259	    -14.61020579	     -3.27667030	     53.83621276	     45.32308573	      0.00000000	      0.00000000	     -1.18406882	     -7.22382322	      0.95843634	     32.29136296	     46.05076427	      0.00000000	      0.00000000
      4.81050000	     -2.95407951	     -6.89576262	      3.73336546	      1.01358736	      0.93247113	      0.50479924	      6.39247729	      5.89908975	    -19.68653120	     11.58181151	     11.58181151	     11.09802512	      5.52848440	     -3.15062935	     34.39798881	    -12.87665562	      0.80558128	     53.47069007	     53.47069007	      7.80053718	    -17.44795744	     10.52179866	    -10.14834033	      7.12485083	      2.80098755	     30.17626558	    -14.66873562	     -3.17588880	     55.08449265	     45.28715467	      0.00000000	      0.00000000	     -2.35337323	     -6.91238496	      1.33978652	     31.49286291	     45.97430954	      0.00000000	      0.00000000
      4.82200000	     -3.06994345	     -6.92561488	      3.77954433	      1.01265571	      0.93212297	      0.50474696	      5.39899470	      6.18037238	    -19.52358759	     10.46952284	     10.46952284	     10.78609508	      5.65806474	     -4.47452882	     34.90827501	    -12.54022442	      0.73543745	     49.91224536	     49.91224536	      7.50498119	    -17.25576849	     10.44912756	    -10.17992551	      7.20008131	      3.14377202	     31.67296473	    -15.15562489	     -1.98137856	     58.33587314	     45.18633358	      0.00000000	      0.00000000	     -3.39572258	     -7.35994979	      6.34772894	     30.28749153	     45.17629607	      0.00000000	      0.00000000
      4.83350000	     -3.27635578	     -6.88882532	      3.74560823	      1.01171280	      0.93153809	      0.50463921	      4.68746489	      6.29023418	    -19.41992651	      9.80121015	      9.80121015	     11.07727618	      5.96348057	     -4.51227340	     35.35049949	    -12.14610348	      0.60215572	     46.18468842	     46.18468842	      7.43684719	    -16.72291940	     10.89088211	    -10.11793899	      7.11802428	      3.21730051	     33.76113632	    -14.88865018	     -1.98316439	     59.78620549	     45.14918042	      0.00000000	      0.00000000	     -4.71064151	     -7.11208133	      6.62336089	     29.69696355	     45.11719169	      0.00000000	      0.00000000
      4.84500000	     -3.64677714	     -7.17396920	      3.73844342	      1.01070335	      0.93023302	      0.50450554	      4.39878773	      6.65492932	    -19.34762725	      9.57467002	      9.57467002	     11.47617872	      6.06481348	     -4.68901254	     36.06444885	    -12.02190220	      0.76489525	     42.58098123	     42.58098123	      7.57902151	    -15.68614786	     11.24563582	     -9.74511604	      7.43307568	      3.79020701	     35.67243091	    -15.15951494	     -2.11811188	     60.71245993	     45.13260515	      0.00000000	      0.00000000	     -5.86848917	     -6.83378803	      6.73977340	     29.33014231	     45.08188425	      0.00000000	      0.00000000
      4.85650000	     -3.68754579	     -6.99806287	      3.77447264	      1.01020705	      0.92973725	      0.50407681	      3.19565457	      6.69097345	    -19.30407701	      8.36282075	      8.36282075	     11.61320666	      6.70774332	     -4.76978116	     35.93285788	    -11.43127206	      0.67498120	     38.47664288	     38.47664288	      7.33585770	    -14.68907091	     11.23996168	     -9.93857276	      7.18995978	      3.07426838	     37.63850053	    -14.24337505	     -1.67956015	     63.60117905	     45.03036256	      0.00000000	      0.00000000	     -7.44666681	     -6.62402208	      7.31909674	     28.68836119	     44.96944167	      0.00000000	      0.00000000
      4.86800000	     -3.90794117	     -7.07782817	      3.77635882	      1.00976936	      0.92847441	      0.50364070	      2.47111958	      6.88588057	    -19.34574362	      7.68881322	      7.68881322	     11.75028627	      7.18522192	     -5.45578772	     35.98344109	    -11.15543425	      0.57127180	     34.43354618	     34.43354618	      6.58959248	    -13.28784664	      9.37593998	     -9.84875635	      7.23025116	      3.65641972	     38.42781302	    -15.08080040	     -0.89563240	     67.70880357	     44.89911772	      0.00000000	      0.00000000	     -8.70194348	     -6.72086174	      9.30066271	     29.03633497	     44.65242737	      0.00000000	      0.00000000
      4.87950000	     -4.12518428	     -7.15786203	      3.78683432	      1.00944637	      0.92709105	      0.50315102	      1.81278919	      7.07171408	    -19.22855240	      7.16789524	      7.16789524	     12.06099273	      7.37151095	     -5.75163361	     35.97436996	    -10.86528088	      0.50850759	     30.57354411	     30.57354411	      6.33036910	    -11.52568011	      8.74135690	     -9.70032834	      7.27363093	      3.90211963	     39.78814442	    -14.98444046	     -1.19448837	     70.31802950	     44.90804891	      0.00000000	      0.00000000	    -10.00236002	     -7.07444329	     12.77412491	     29.18263533	     44.18971693	      0.00000000	      0.00000000
      4.89100000	     -4.30459145	     -7.23393974	      3.79571969	      1.00937853	      0.92562110	      0.50249039	      1.15755203	      7.21493460	    -19.11478379	      6.78895241	      6.78895241	     12.49622245	      7.56638242	     -5.88299576	     35.89775783	    -10.59930893	      0.35960469	     27.04757903	     27.04757903	      6.53705322	     -9.46388406	      9.20226211	     -9.51539763	      7.29735455	      3.81266721	     41.43705208	    -14.63768121	     -1.16900366	     71.82030671	     44.87002925	      0.00000000	      0.00000000	    -11.31754139	     -6.87002010	     13.01921720	     28.84468245	     44.14348816	      0.00000000	      0.00000000
